<?xml version="1.0" encoding="utf-8"?>
<!-- Generator: Adobe Illustrator 16.0.0, SVG Export Plug-In . SVG Version: 6.00 Build 0)  -->
<!DOCTYPE svg PUBLIC "-//W3C//DTD SVG 1.1//EN" "http://www.w3.org/Graphics/SVG/1.1/DTD/svg11.dtd">
<svg version="1.1" id="Layer_1" xmlns="http://www.w3.org/2000/svg" xmlns:xlink="http://www.w3.org/1999/xlink" x="0px" y="0px"
	 width="864px" height="864px" viewBox="0 0 864 864" enable-background="new 0 0 864 864" xml:space="preserve">
<path fill-rule="evenodd" clip-rule="evenodd" d="M661.628,641.345c-22.331-7.782-45.718-12.534-69.235-18.754
	c13.661-24.189,16.243-52.093,6.882-82.01c6.423,0,10.156,0.126,13.88-0.019C683.2,537.834,734.122,474.123,721.604,405
	c-5.509-30.428-20.764-56.569-37.39-81.693c-28.476-43.029-44.094-91.419-63.148-143.076c15.653-3.757,21.77,4.5,26.737,11.893
	c-1.17-25.024-10.962-34.317-34.328-33.315c-2.924,0.125-7.005-2.147-8.825-4.592c-17.819-23.947-41.725-38.869-70.228-45.715
	c-51.922-12.47-102.988-16.341-148.158,20.932c-1.846,1.522-6.186,1.187-8.905,0.303c-20.987-6.819-36.913,3.515-38.478,24.078
	c10.987-7.617,14.351-7.922,23.721-4.372c3.78,0.425,3.78,1.648,2.937,4.587c-25.324,33.142-49.935,66.862-76.218,99.224
	c-18.19,22.396-39.649,42.125-57.974,64.423c-53.408,64.985-25.479,164.447,64.755,184.863c5.918,1.338,11.739,3.102,18.66,4.949
	c-16.349,26.021-25.681,52.388-19.153,83.313c-32.924-14.423-64.485-15.382-95.972-0.433
	c-42.911,20.376-74.227,84.238-14.721,128.559c50.771,37.814,107.688,44.093,166.925,23.643
	c24.297-8.389,43.501-23.621,41.282-50.614c30.336,2.009,60.407,4.001,91.146,6.036c-1.852,23.697,13.545,39.451,34.406,49.61
	c47.055,22.917,96.895,26.688,146.921,13.066c37.999-10.345,53.692-46.75,37.929-81.519
	C695.144,660.664,680.168,647.808,661.628,641.345z"/>
<g>
	<path fill-rule="evenodd" clip-rule="evenodd" fill="#754C29" d="M381.811,155.806c11.67,15.567,21.826,29.11,33.479,44.653
		c-20.821,6.9-33.939,19.768-42.796,36.921c-12.802,24.793-16.878,50.672-8.506,77.811c11.636,37.719,48.686,46.866,76.057,18.3
		c23.714-24.75,29.771-55.247,25.953-88.272c16.775-5.896,19.382-10.717,13.79-25.162c-13.418,11.094-25.687,9.264-36.867-6.579
		c-6.257-8.863-10.906-18.843-16.58-28.137c-9.129-14.951-18.506-29.75-27.989-44.95c40.508-44.708,169.085-26.089,190.613,18.144
		c-16.146,19.118-30.547,36.482-45.342,53.504c-4.644,5.342-9.95,10.303-15.649,14.492c-14.136,10.394-24.423,8.594-36.629-8.387
		c-0.916,8.596-3.935,15.722-1.618,19.864c4.053,7.25,2.617,12.646,0.562,19.687c-8.588,29.41-7.873,58.227,10.295,84.274
		c16.962,24.319,44.819,26.021,65.737,4.835c31.291-31.691,32.107-92.805,1.682-125.276c-1.106-1.179-2.13-2.433-4.757-5.449
		c13.535-10.795,26.586-21.202,41.501-33.098c6.159,15.614,11.72,27.765,15.792,40.393c13.591,42.142,33.513,81.081,57.069,118.449
		c13.843,21.959,25.977,44.79,29.785,71.314c7.915,55.11-36.047,111.152-91.472,111.302c-34.057,0.092-68.159-6.031-102.192-9.797
		c-50.316-5.567-100.634-11.16-150.859-17.469c-23.205-2.915-46.821-5.37-69.165-11.803c-71.593-20.61-96.68-96.123-51.949-155.671
		c14.282-19.012,30.876-36.474,47.722-53.335c31.077-31.105,54.692-67.728,79.453-103.567
		C372.237,168.014,375.951,163.509,381.811,155.806z M414.816,426.877c28.405,2.144,49.824,2.761,70.95,5.574
		c36.374,4.844,71.137,14.4,102.006,36.019c9.548,6.686,22.143,9.585,33.775,12.464c4.79,1.186,13.644,1.045,16.14-3.587
		c2.092-5.46-2.754-12.872-6.73-15.969c-7.11-5.536-7.867-11.7-7.927-19.583c-0.111-14.646-0.641-29.339-2.03-43.915
		c-1.513-15.863-7.591-18.43-19.932-7.985c-12.773,10.81-24.174,23.237-36.842,34.186c-3.459,2.989-9.832,5.358-13.992,4.361
		c-51.068-12.232-102.634-20.635-155.189-22.34c-7.641-0.248-12.908-3.189-17.206-10.104c-8.17-13.145-17.054-25.932-26.627-38.091
		c-7.925-10.065-14.923-8.854-18.952,3.155c-4.248,12.666-6.481,26.007-10.718,38.676c-1.374,4.112-5.709,8.127-9.716,10.268
		c-7.307,3.902-15.958,5.44-22.92,9.775c-4.37,2.722-11.513,9.292-9.92,13.289c1.16,3.343,9.393,5.835,14.236,6.104
		c10.387,0.578,20.941-0.004,31.303-1.191C356.897,434.271,389.216,430.059,414.816,426.877z"/>
	<path fill-rule="evenodd" clip-rule="evenodd" fill="#754C29" d="M612.084,752.414c-31.171-0.748-61.896-3.88-89.475-20.196
		c-12.085-7.149-23.613-15.841-22.26-32.006c0.375-4.482,4.684-10.913,8.709-12.441c25.051-9.517,47.429-22.764,66.217-42.037
		c2.335-2.396,6.29-4.693,9.422-4.599c29.075,0.886,57.613,4.496,82.965,20.504c12.48,7.881,21.408,18.533,24.892,33.253
		c4.822,20.376-2.418,39.366-21.901,46.641C652.219,748.417,616.736,752.154,612.084,752.414z"/>
	<path fill-rule="evenodd" clip-rule="evenodd" fill="#754C29" d="M357.685,722.514c-28.564-55.55-129.469-92.804-187.475-69.783
		c-1.118-21.084,21.511-46.192,50.21-54.166c21.587-5.998,43.667-6.097,63.7,4.789c22.687,12.327,45.818,24.741,65.785,40.809
		c11.206,9.019,18.281,24.757,23.863,38.8C381.643,702.775,377.392,710.548,357.685,722.514z"/>
</g>
<g>
	<path fill-rule="evenodd" clip-rule="evenodd" fill="#A97C50" d="M449.146,682.979c-12.547-0.807-24.421-2.07-37.105-5.759
		c-15.35-4.464-27.764-9.338-35.651-25.313c-10.51-21.29-30.4-34.299-51.125-44.856c-8.463-4.312-12.148-10.263-14.261-18.941
		c-6.832-28.093,3.351-51.914,18.307-74.408c1.604-2.41,7.212-3.268,10.852-3.046c69.386,4.23,138.482,10.929,206.682,25.043
		c6.54,1.354,13.297,2.958,19.863,2.629c15.384-0.771,19.43,8.34,21.406,21.109c5.576,36.024-8.723,63.867-35.422,86.265
		C524.31,669.509,487.668,681.88,449.146,682.979z"/>
	<path fill-rule="evenodd" clip-rule="evenodd" fill="#A97C50" d="M291.285,739.483c-35.799-2.294-69.144-10.218-97.405-33.085
		c-6.738-5.451-12.87-12.071-17.882-19.145c-9.048-12.771-5.935-23.439,9.187-27.639c11.021-3.06,23.344-4.509,34.614-3.04
		c40.133,5.231,76.718,20.042,108.45,45.601c5.118,4.121,9.493,9.468,13.237,14.918c4.919,7.158,4.758,11.994-5.797,15.075
		C320.887,736.489,309.518,739.268,291.285,739.483z"/>
</g>
<g>
	<path fill-rule="evenodd" clip-rule="evenodd" fill="#FFFFFF" d="M455.256,263.419c-0.563,25.733-7.896,47.876-26.602,64.993
		c-18.73,17.141-40.463,12.575-51.061-10.273c-13.559-29.23-3.604-74.831,20.901-95.744c13.816-11.792,19.258-11.391,31.236,1.824
		c3.351,3.697,6.748,8.067,11.078,10.037C457.595,241.892,453.827,248.972,455.256,263.419z M419.63,294.328
		c0.881,7.223,3.022,12.727,9.385,14.919c7.705,1.478,11.404-5.239,14.326-9.685c8.8-13.389,11.114-28.843,7.94-44.413
		c-1.001-4.913-5.449-11.053-9.797-12.678c-2.92-1.09-10.301,3.87-12.4,7.721C417.759,270.97,419.257,291.267,419.63,294.328z"/>
	<path fill-rule="evenodd" clip-rule="evenodd" fill="#FFFFFF" d="M523.585,248.347c11.1-7.078,21.566-13.754,33.655-21.464
		c4.198,5.538,9.954,10.771,12.793,17.276c13.937,31.941,11.851,63.003-9.2,91.236c-15.54,20.84-40.583,18.752-53.389-3.965
		c-13.863-24.594-13.499-50.395-3.623-76.225c1.26-3.293,5.485-5.451,9.58-7.12c-10.713,16.684-13.732,34.312-8.524,52.605
		c1.812,6.365,4.014,16.151,12.248,17.156c10.114,0.524,11.713-9.703,13.912-15.859C537.78,283.101,537.499,264.344,523.585,248.347
		z"/>
	<path fill-rule="evenodd" clip-rule="evenodd" fill="#FFFFFF" d="M522.169,258.696c-0.335,6.562-0.671,13.124-1.007,19.686
		c-2.177-0.118-4.354-0.236-6.532-0.354c0.351-6.561,0.702-13.12,1.052-19.681C517.845,258.462,520.006,258.579,522.169,258.696z"/>
	<path fill-rule="evenodd" clip-rule="evenodd" fill="#FFFFFF" d="M610.038,400.522c0,17.798,0,35.597,0,57.022
		c-14.042-7.146-26.671-13.571-39.996-20.351c12.927-13.553,24.808-26.008,36.688-38.463
		C610.42,396.658,609.809,398.492,610.038,400.522z"/>
	<path fill-rule="evenodd" clip-rule="evenodd" fill="#FFFFFF" d="M344.749,367.332c9.859,14.679,19.718,29.357,31.033,46.204
		c-15.928,2.308-29.505,4.275-46.49,6.735c4.559-19.701,8.344-36.059,12.129-52.416
		C342.529,365.771,342.834,364.547,344.749,367.332z"/>
	<path fill-rule="evenodd" clip-rule="evenodd" fill="#FFFFFF" d="M432.408,270.075c1.135-6.501,2.272-13.003,3.408-19.505
		c2.102,0.358,4.201,0.715,6.302,1.072c-1.079,6.512-2.159,13.023-3.239,19.535C436.721,270.809,434.564,270.441,432.408,270.075z"
		/>
</g>
</svg>
